<svg id="visual" viewBox="0 0 1920 1080" width="1920" height="1080" xmlns="http://www.w3.org/2000/svg" xmlns:xlink="http://www.w3.org/1999/xlink" version="1.1"><rect x="0" y="0" width="1920" height="1080" fill="#12141c"></rect><g transform="translate(1001.0248302184243 619.4793250516226)"><path d="M303.8 -501.5C382.6 -480.7 427.7 -376.9 427.7 -279.4C427.7 -182 382.6 -91 395 7.2C407.4 105.3 477.4 210.7 452 264.1C426.6 317.5 305.8 319 214.6 326.3C123.3 333.6 61.7 346.8 0.1 346.7C-61.5 346.5 -123 333 -217.4 327.5C-311.8 322 -439.1 324.5 -497.5 271.3C-555.9 218 -545.5 109 -514.4 17.9C-483.4 -73.2 -431.8 -146.3 -370.8 -195.1C-309.8 -243.9 -239.4 -268.3 -176 -298.1C-112.7 -327.8 -56.3 -362.9 28.1 -411.5C112.5 -460.2 225 -522.4 303.8 -501.5" fill="#131524"></path></g></svg>