<svg id="visual" viewBox="0 0 600 900" width="600" height="900" xmlns="http://www.w3.org/2000/svg" xmlns:xlink="http://www.w3.org/1999/xlink" version="1.1"><rect x="0" y="0" width="600" height="900" fill="#12141c"></rect><g transform="translate(276.5837844832779 403.33645445637455)"><path d="M114.1 -203.8C141.1 -181.9 151.8 -137.8 182 -100.2C212.3 -62.5 262.1 -31.3 289.2 15.6C316.3 62.5 320.5 125 291.8 165.3C263 205.5 201.3 223.6 147.1 252.5C93 281.4 46.5 321.2 3.1 315.9C-40.3 310.5 -80.7 260.1 -115.7 220.1C-150.8 180.2 -180.6 150.9 -208.5 115.9C-236.3 81 -262.1 40.5 -264.5 -1.3C-266.8 -43.2 -245.5 -86.3 -216.3 -118.8C-187 -151.3 -149.8 -173.1 -112.4 -189C-75 -204.9 -37.5 -215 3 -220.1C43.5 -225.3 87 -225.7 114.1 -203.8" fill="#131524"></path></g></svg>