<svg id="visual" viewBox="0 0 600 900" width="600" height="900" xmlns="http://www.w3.org/2000/svg" xmlns:xlink="http://www.w3.org/1999/xlink" version="1.1"><rect x="0" y="0" width="600" height="900" fill="#080a11"></rect><defs><linearGradient id="grad1_0" x1="0%" y1="100%" x2="100%" y2="0%"><stop offset="30%" stop-color="#080a11" stop-opacity="1"></stop><stop offset="70%" stop-color="#080a11" stop-opacity="1"></stop></linearGradient></defs><defs><linearGradient id="grad2_0" x1="0%" y1="100%" x2="100%" y2="0%"><stop offset="30%" stop-color="#080a11" stop-opacity="1"></stop><stop offset="70%" stop-color="#080a11" stop-opacity="1"></stop></linearGradient></defs><g transform="translate(600, 900)"><path d="M-243.4 0C-226 -26.7 -208.7 -53.4 -197.7 -81.9C-186.7 -110.4 -182.2 -140.6 -166.2 -166.2C-150.2 -191.8 -122.7 -212.8 -93.1 -224.8C-63.5 -236.9 -31.8 -240.2 0 -243.4L0 0Z" fill="#001122"></path></g><g transform="translate(0, 0)"><path d="M243.4 0C228.3 27.2 213.2 54.5 203.3 84.2C193.3 113.9 188.5 146.1 171.1 171.1C153.7 196.1 123.8 214 93.1 224.8C62.5 235.7 31.3 239.5 0 243.4L0 0Z" fill="#001122"></path></g></svg>