<svg id="visual" viewBox="0 0 1920 1080" width="1920" height="1080" xmlns="http://www.w3.org/2000/svg" xmlns:xlink="http://www.w3.org/1999/xlink" version="1.1"><rect x="0" y="0" width="1920" height="1080" fill="#080a11"></rect><defs><linearGradient id="grad1_0" x1="43.8%" y1="100%" x2="100%" y2="0%"><stop offset="14.444444444444446%" stop-color="#080a11" stop-opacity="1"></stop><stop offset="85.55555555555554%" stop-color="#080a11" stop-opacity="1"></stop></linearGradient></defs><defs><linearGradient id="grad2_0" x1="0%" y1="100%" x2="56.3%" y2="0%"><stop offset="14.444444444444446%" stop-color="#080a11" stop-opacity="1"></stop><stop offset="85.55555555555554%" stop-color="#080a11" stop-opacity="1"></stop></linearGradient></defs><g transform="translate(1920, 1080)"><path d="M-486 0C-483.9 -67.9 -481.8 -135.7 -449 -186C-416.2 -236.2 -352.6 -268.9 -301.9 -301.9C-251.3 -335 -213.5 -368.4 -165.3 -399.1C-117.1 -429.9 -58.6 -457.9 0 -486L0 0Z" fill="#001122"></path></g><g transform="translate(0, 0)"><path d="M486 0C483.2 66.6 480.5 133.3 449 186C417.5 238.7 357.4 277.5 304.1 304.1C250.7 330.6 204.1 345 154.6 373.2C105.1 401.5 52.5 443.8 0 486L0 0Z" fill="#001122"></path></g></svg>