<svg id="visual" viewBox="0 0 1920 1080" width="1920" height="1080" xmlns="http://www.w3.org/2000/svg" xmlns:xlink="http://www.w3.org/1999/xlink" version="1.1"><path d="M0 141L32 141C64 141 128 141 192 150C256 159 320 177 384 171.7C448 166.3 512 137.7 576 141.3C640 145 704 181 768 191.8C832 202.7 896 188.3 960 186.5C1024 184.7 1088 195.3 1152 204.3C1216 213.3 1280 220.7 1344 209.8C1408 199 1472 170 1536 164.5C1600 159 1664 177 1728 180.7C1792 184.3 1856 173.7 1888 168.3L1920 163L1920 0L1888 0C1856 0 1792 0 1728 0C1664 0 1600 0 1536 0C1472 0 1408 0 1344 0C1280 0 1216 0 1152 0C1088 0 1024 0 960 0C896 0 832 0 768 0C704 0 640 0 576 0C512 0 448 0 384 0C320 0 256 0 192 0C128 0 64 0 32 0L0 0Z" fill="#080a11"></path><path d="M0 455L32 442.3C64 429.7 128 404.3 192 418.7C256 433 320 487 384 476.2C448 465.3 512 389.7 576 395C640 400.3 704 486.7 768 526.3C832 566 896 559 960 551.8C1024 544.7 1088 537.3 1152 539.2C1216 541 1280 552 1344 539.5C1408 527 1472 491 1536 476.5C1600 462 1664 469 1728 456.3C1792 443.7 1856 411.3 1888 395.2L1920 379L1920 161L1888 166.3C1856 171.7 1792 182.3 1728 178.7C1664 175 1600 157 1536 162.5C1472 168 1408 197 1344 207.8C1280 218.7 1216 211.3 1152 202.3C1088 193.3 1024 182.7 960 184.5C896 186.3 832 200.7 768 189.8C704 179 640 143 576 139.3C512 135.7 448 164.3 384 169.7C320 175 256 157 192 148C128 139 64 139 32 139L0 139Z" fill="#0b0d11"></path><path d="M0 789L32 785.5C64 782 128 775 192 775C256 775 320 782 384 783.8C448 785.7 512 782.3 576 775.2C640 768 704 757 768 757C832 757 896 768 960 764.5C1024 761 1088 743 1152 735.7C1216 728.3 1280 731.7 1344 753.2C1408 774.7 1472 814.3 1536 828.8C1600 843.3 1664 832.7 1728 820.2C1792 807.7 1856 793.3 1888 786.2L1920 779L1920 377L1888 393.2C1856 409.3 1792 441.7 1728 454.3C1664 467 1600 460 1536 474.5C1472 489 1408 525 1344 537.5C1280 550 1216 539 1152 537.2C1088 535.3 1024 542.7 960 549.8C896 557 832 564 768 524.3C704 484.7 640 398.3 576 393C512 387.7 448 463.3 384 474.2C320 485 256 431 192 416.7C128 402.3 64 427.7 32 440.3L0 453Z" fill="#0d0e11"></path><path d="M0 930L32 926.3C64 922.7 128 915.3 192 913.5C256 911.7 320 915.3 384 910C448 904.7 512 890.3 576 883.2C640 876 704 876 768 874.2C832 872.3 896 868.7 960 872.2C1024 875.7 1088 886.3 1152 893.5C1216 900.7 1280 904.3 1344 915.2C1408 926 1472 944 1536 954.8C1600 965.7 1664 969.3 1728 965.8C1792 962.3 1856 951.7 1888 946.3L1920 941L1920 777L1888 784.2C1856 791.3 1792 805.7 1728 818.2C1664 830.7 1600 841.3 1536 826.8C1472 812.3 1408 772.7 1344 751.2C1280 729.7 1216 726.3 1152 733.7C1088 741 1024 759 960 762.5C896 766 832 755 768 755C704 755 640 766 576 773.2C512 780.3 448 783.7 384 781.8C320 780 256 773 192 773C128 773 64 780 32 783.5L0 787Z" fill="#0b0d11"></path><path d="M0 1081L32 1081C64 1081 128 1081 192 1081C256 1081 320 1081 384 1081C448 1081 512 1081 576 1081C640 1081 704 1081 768 1081C832 1081 896 1081 960 1081C1024 1081 1088 1081 1152 1081C1216 1081 1280 1081 1344 1081C1408 1081 1472 1081 1536 1081C1600 1081 1664 1081 1728 1081C1792 1081 1856 1081 1888 1081L1920 1081L1920 939L1888 944.3C1856 949.7 1792 960.3 1728 963.8C1664 967.3 1600 963.7 1536 952.8C1472 942 1408 924 1344 913.2C1280 902.3 1216 898.7 1152 891.5C1088 884.3 1024 873.7 960 870.2C896 866.7 832 870.3 768 872.2C704 874 640 874 576 881.2C512 888.3 448 902.7 384 908C320 913.3 256 909.7 192 911.5C128 913.3 64 920.7 32 924.3L0 928Z" fill="#080a11"></path></svg>