<svg id="visual" viewBox="0 0 600 900" width="600" height="900" xmlns="http://www.w3.org/2000/svg" xmlns:xlink="http://www.w3.org/1999/xlink" version="1.1"><path d="M0 118L10 118C20 118 40 118 60 125.5C80 133 100 148 120 143.5C140 139 160 115 180 118C200 121 220 151 240 160C260 169 280 157 300 155.5C320 154 340 163 360 170.5C380 178 400 184 420 175C440 166 460 142 480 137.5C500 133 520 148 540 151C560 154 580 145 590 140.5L600 136L600 0L590 0C580 0 560 0 540 0C520 0 500 0 480 0C460 0 440 0 420 0C400 0 380 0 360 0C340 0 320 0 300 0C280 0 260 0 240 0C220 0 200 0 180 0C160 0 140 0 120 0C100 0 80 0 60 0C40 0 20 0 10 0L0 0Z" fill="#080a11"></path><path d="M0 379L10 368.5C20 358 40 337 60 349C80 361 100 406 120 397C140 388 160 325 180 329.5C200 334 220 406 240 439C260 472 280 466 300 460C320 454 340 448 360 449.5C380 451 400 460 420 449.5C440 439 460 409 480 397C500 385 520 391 540 380.5C560 370 580 343 590 329.5L600 316L600 134L590 138.5C580 143 560 152 540 149C520 146 500 131 480 135.5C460 140 440 164 420 173C400 182 380 176 360 168.5C340 161 320 152 300 153.5C280 155 260 167 240 158C220 149 200 119 180 116C160 113 140 137 120 141.5C100 146 80 131 60 123.5C40 116 20 116 10 116L0 116Z" fill="#0b0d11"></path><path d="M0 658L10 655C20 652 40 646 60 646C80 646 100 652 120 653.5C140 655 160 652 180 646C200 640 220 631 240 631C260 631 280 640 300 637C320 634 340 619 360 613C380 607 400 610 420 628C440 646 460 679 480 691C500 703 520 694 540 683.5C560 673 580 661 590 655L600 649L600 314L590 327.5C580 341 560 368 540 378.5C520 389 500 383 480 395C460 407 440 437 420 447.5C400 458 380 449 360 447.5C340 446 320 452 300 458C280 464 260 470 240 437C220 404 200 332 180 327.5C160 323 140 386 120 395C100 404 80 359 60 347C40 335 20 356 10 366.5L0 377Z" fill="#0d0e11"></path><path d="M0 775L10 772C20 769 40 763 60 761.5C80 760 100 763 120 758.5C140 754 160 742 180 736C200 730 220 730 240 728.5C260 727 280 724 300 727C320 730 340 739 360 745C380 751 400 754 420 763C440 772 460 787 480 796C500 805 520 808 540 805C560 802 580 793 590 788.5L600 784L600 647L590 653C580 659 560 671 540 681.5C520 692 500 701 480 689C460 677 440 644 420 626C400 608 380 605 360 611C340 617 320 632 300 635C280 638 260 629 240 629C220 629 200 638 180 644C160 650 140 653 120 651.5C100 650 80 644 60 644C40 644 20 650 10 653L0 656Z" fill="#0b0d11"></path><path d="M0 901L10 901C20 901 40 901 60 901C80 901 100 901 120 901C140 901 160 901 180 901C200 901 220 901 240 901C260 901 280 901 300 901C320 901 340 901 360 901C380 901 400 901 420 901C440 901 460 901 480 901C500 901 520 901 540 901C560 901 580 901 590 901L600 901L600 782L590 786.5C580 791 560 800 540 803C520 806 500 803 480 794C460 785 440 770 420 761C400 752 380 749 360 743C340 737 320 728 300 725C280 722 260 725 240 726.5C220 728 200 728 180 734C160 740 140 752 120 756.5C100 761 80 758 60 759.5C40 761 20 767 10 770L0 773Z" fill="#080a11"></path></svg>